<svg fill="#ffffff" width="14px" height="14px" viewBox="0 0 24 24" id="naira" data-name="Flat Color" xmlns="http://www.w3.org/2000/svg" class="icon flat-color" stroke="#ffffff"><g id="SVGRepo_bgCarrier" stroke-width="0"></g><g id="SVGRepo_tracerCarrier" stroke-linecap="round" stroke-linejoin="round"></g><g id="SVGRepo_iconCarrier"><path id="primary" d="M20,13H18V11h2a1,1,0,0,0,0-2H18V3a1,1,0,0,0-2,0V9H11.48L7.87,2.51A1,1,0,0,0,6,3V9H4a1,1,0,0,0,0,2H6v2H4a1,1,0,0,0,0,2H6v6a1,1,0,0,0,2,0V15h4.52l3.61,6.49A1,1,0,0,0,17,22a1.07,1.07,0,0,0,.25,0A1,1,0,0,0,18,21V15h2a1,1,0,0,0,0-2Zm-4-2v2H13.7l-1.11-2ZM8,6.86,9.19,9H8ZM8,13V11h2.3l1.11,2Zm8,4.14L14.81,15H16Z" style="fill: #ffffff;"></path></g></svg>